<mxfile host="Electron" modified="2024-07-03T20:26:42.936Z" agent="Mozilla/5.0 (Windows NT 10.0; Win64; x64) AppleWebKit/537.36 (KHTML, like Gecko) draw.io/22.0.3 Chrome/114.0.5735.289 Electron/25.8.4 Safari/537.36" etag="OAUKzK_DrSsYntMV2CBy" version="22.0.3" type="device">
  <diagram id="R2lEEEUBdFMjLlhIrx00" name="1:1">
    <mxGraphModel dx="622" dy="401" grid="0" gridSize="10" guides="1" tooltips="1" connect="1" arrows="1" fold="1" page="1" pageScale="1" pageWidth="850" pageHeight="1100" math="0" shadow="0" extFonts="Permanent Marker^https://fonts.googleapis.com/css?family=Permanent+Marker">
      <root>
        <mxCell id="0" />
        <mxCell id="1" parent="0" />
        <mxCell id="6Qk-c6x9b5MRVzB00tFX-8" style="rounded=0;orthogonalLoop=1;jettySize=auto;html=1;exitX=1;exitY=0;exitDx=0;exitDy=0;entryX=0;entryY=0.5;entryDx=0;entryDy=0;" parent="1" source="6Qk-c6x9b5MRVzB00tFX-1" target="6Qk-c6x9b5MRVzB00tFX-4" edge="1">
          <mxGeometry relative="1" as="geometry" />
        </mxCell>
        <mxCell id="6Qk-c6x9b5MRVzB00tFX-9" style="rounded=0;orthogonalLoop=1;jettySize=auto;html=1;exitX=1;exitY=0.5;exitDx=0;exitDy=0;" parent="1" source="6Qk-c6x9b5MRVzB00tFX-1" target="6Qk-c6x9b5MRVzB00tFX-3" edge="1">
          <mxGeometry relative="1" as="geometry" />
        </mxCell>
        <mxCell id="6Qk-c6x9b5MRVzB00tFX-10" style="rounded=0;orthogonalLoop=1;jettySize=auto;html=1;exitX=1;exitY=1;exitDx=0;exitDy=0;entryX=0;entryY=0.5;entryDx=0;entryDy=0;" parent="1" source="6Qk-c6x9b5MRVzB00tFX-1" target="6Qk-c6x9b5MRVzB00tFX-5" edge="1">
          <mxGeometry relative="1" as="geometry" />
        </mxCell>
        <mxCell id="6Qk-c6x9b5MRVzB00tFX-11" style="rounded=0;orthogonalLoop=1;jettySize=auto;html=1;exitX=0.5;exitY=1;exitDx=0;exitDy=0;entryX=0;entryY=0.5;entryDx=0;entryDy=0;" parent="1" source="6Qk-c6x9b5MRVzB00tFX-1" target="6Qk-c6x9b5MRVzB00tFX-6" edge="1">
          <mxGeometry relative="1" as="geometry" />
        </mxCell>
        <mxCell id="6Qk-c6x9b5MRVzB00tFX-39" style="rounded=0;orthogonalLoop=1;jettySize=auto;html=1;exitX=0.5;exitY=0;exitDx=0;exitDy=0;entryX=0;entryY=0.5;entryDx=0;entryDy=0;" parent="1" source="6Qk-c6x9b5MRVzB00tFX-1" target="6Qk-c6x9b5MRVzB00tFX-38" edge="1">
          <mxGeometry relative="1" as="geometry" />
        </mxCell>
        <mxCell id="6Qk-c6x9b5MRVzB00tFX-47" style="edgeStyle=orthogonalEdgeStyle;rounded=0;orthogonalLoop=1;jettySize=auto;html=1;exitX=0;exitY=1;exitDx=0;exitDy=0;entryX=1;entryY=1;entryDx=0;entryDy=0;endArrow=classic;endFill=1;startArrow=classic;startFill=1;" parent="1" source="6Qk-c6x9b5MRVzB00tFX-1" target="6Qk-c6x9b5MRVzB00tFX-2" edge="1">
          <mxGeometry relative="1" as="geometry">
            <Array as="points">
              <mxPoint x="72" y="400" />
              <mxPoint x="348" y="400" />
            </Array>
          </mxGeometry>
        </mxCell>
        <mxCell id="6Qk-c6x9b5MRVzB00tFX-1" value="MSN" style="ellipse;whiteSpace=wrap;html=1;aspect=fixed;" parent="1" vertex="1">
          <mxGeometry x="65" y="210" width="50" height="50" as="geometry" />
        </mxCell>
        <mxCell id="6Qk-c6x9b5MRVzB00tFX-12" style="rounded=0;orthogonalLoop=1;jettySize=auto;html=1;exitX=0;exitY=0;exitDx=0;exitDy=0;entryX=1;entryY=0.5;entryDx=0;entryDy=0;" parent="1" source="6Qk-c6x9b5MRVzB00tFX-2" target="6Qk-c6x9b5MRVzB00tFX-4" edge="1">
          <mxGeometry relative="1" as="geometry" />
        </mxCell>
        <mxCell id="6Qk-c6x9b5MRVzB00tFX-13" style="rounded=0;orthogonalLoop=1;jettySize=auto;html=1;exitX=0;exitY=0.5;exitDx=0;exitDy=0;entryX=1;entryY=0.5;entryDx=0;entryDy=0;" parent="1" source="6Qk-c6x9b5MRVzB00tFX-2" target="6Qk-c6x9b5MRVzB00tFX-3" edge="1">
          <mxGeometry relative="1" as="geometry" />
        </mxCell>
        <mxCell id="6Qk-c6x9b5MRVzB00tFX-14" style="rounded=0;orthogonalLoop=1;jettySize=auto;html=1;exitX=0;exitY=1;exitDx=0;exitDy=0;entryX=1;entryY=0.5;entryDx=0;entryDy=0;" parent="1" source="6Qk-c6x9b5MRVzB00tFX-2" target="6Qk-c6x9b5MRVzB00tFX-5" edge="1">
          <mxGeometry relative="1" as="geometry" />
        </mxCell>
        <mxCell id="6Qk-c6x9b5MRVzB00tFX-15" style="rounded=0;orthogonalLoop=1;jettySize=auto;html=1;exitX=0.5;exitY=1;exitDx=0;exitDy=0;entryX=1;entryY=0.5;entryDx=0;entryDy=0;" parent="1" source="6Qk-c6x9b5MRVzB00tFX-2" target="6Qk-c6x9b5MRVzB00tFX-6" edge="1">
          <mxGeometry relative="1" as="geometry" />
        </mxCell>
        <mxCell id="6Qk-c6x9b5MRVzB00tFX-40" style="rounded=0;orthogonalLoop=1;jettySize=auto;html=1;exitX=0.5;exitY=0;exitDx=0;exitDy=0;entryX=1;entryY=0.5;entryDx=0;entryDy=0;" parent="1" source="6Qk-c6x9b5MRVzB00tFX-2" target="6Qk-c6x9b5MRVzB00tFX-38" edge="1">
          <mxGeometry relative="1" as="geometry" />
        </mxCell>
        <mxCell id="6Qk-c6x9b5MRVzB00tFX-2" value="RYV" style="ellipse;whiteSpace=wrap;html=1;aspect=fixed;" parent="1" vertex="1">
          <mxGeometry x="305" y="210" width="50" height="50" as="geometry" />
        </mxCell>
        <mxCell id="6Qk-c6x9b5MRVzB00tFX-3" value="UES" style="ellipse;whiteSpace=wrap;html=1;aspect=fixed;" parent="1" vertex="1">
          <mxGeometry x="185" y="180" width="50" height="50" as="geometry" />
        </mxCell>
        <mxCell id="6Qk-c6x9b5MRVzB00tFX-4" value="UNU" style="ellipse;whiteSpace=wrap;html=1;aspect=fixed;" parent="1" vertex="1">
          <mxGeometry x="185" y="110" width="50" height="50" as="geometry" />
        </mxCell>
        <mxCell id="6Qk-c6x9b5MRVzB00tFX-5" value="ATW" style="ellipse;whiteSpace=wrap;html=1;aspect=fixed;" parent="1" vertex="1">
          <mxGeometry x="185" y="250" width="50" height="50" as="geometry" />
        </mxCell>
        <mxCell id="6Qk-c6x9b5MRVzB00tFX-6" value="PCZ" style="ellipse;whiteSpace=wrap;html=1;aspect=fixed;" parent="1" vertex="1">
          <mxGeometry x="185" y="320" width="50" height="50" as="geometry" />
        </mxCell>
        <mxCell id="6Qk-c6x9b5MRVzB00tFX-16" value="4" style="text;html=1;strokeColor=none;fillColor=none;align=center;verticalAlign=middle;whiteSpace=wrap;rounded=0;fontColor=#3333FF;fontStyle=1" parent="1" vertex="1">
          <mxGeometry x="44" y="220" width="20" height="30" as="geometry" />
        </mxCell>
        <mxCell id="6Qk-c6x9b5MRVzB00tFX-17" value="33" style="text;html=1;strokeColor=none;fillColor=none;align=center;verticalAlign=middle;whiteSpace=wrap;rounded=0;" parent="1" vertex="1">
          <mxGeometry x="145" y="130" width="20" height="30" as="geometry" />
        </mxCell>
        <mxCell id="6Qk-c6x9b5MRVzB00tFX-18" value="71" style="text;html=1;strokeColor=none;fillColor=none;align=center;verticalAlign=middle;whiteSpace=wrap;rounded=0;" parent="1" vertex="1">
          <mxGeometry x="255" y="290" width="20" height="30" as="geometry" />
        </mxCell>
        <mxCell id="6Qk-c6x9b5MRVzB00tFX-19" value="66" style="text;html=1;strokeColor=none;fillColor=none;align=center;verticalAlign=middle;whiteSpace=wrap;rounded=0;" parent="1" vertex="1">
          <mxGeometry x="255" y="240" width="20" height="30" as="geometry" />
        </mxCell>
        <mxCell id="6Qk-c6x9b5MRVzB00tFX-20" value="23" style="text;html=1;strokeColor=none;fillColor=none;align=center;verticalAlign=middle;whiteSpace=wrap;rounded=0;" parent="1" vertex="1">
          <mxGeometry x="255" y="190" width="20" height="30" as="geometry" />
        </mxCell>
        <mxCell id="6Qk-c6x9b5MRVzB00tFX-21" value="15" style="text;html=1;strokeColor=none;fillColor=none;align=center;verticalAlign=middle;whiteSpace=wrap;rounded=0;" parent="1" vertex="1">
          <mxGeometry x="255" y="130" width="20" height="30" as="geometry" />
        </mxCell>
        <mxCell id="6Qk-c6x9b5MRVzB00tFX-22" value="73" style="text;html=1;strokeColor=none;fillColor=none;align=center;verticalAlign=middle;whiteSpace=wrap;rounded=0;" parent="1" vertex="1">
          <mxGeometry x="145" y="290" width="20" height="30" as="geometry" />
        </mxCell>
        <mxCell id="6Qk-c6x9b5MRVzB00tFX-23" value="76" style="text;html=1;strokeColor=none;fillColor=none;align=center;verticalAlign=middle;whiteSpace=wrap;rounded=0;" parent="1" vertex="1">
          <mxGeometry x="145" y="240" width="20" height="30" as="geometry" />
        </mxCell>
        <mxCell id="6Qk-c6x9b5MRVzB00tFX-24" value="49" style="text;html=1;strokeColor=none;fillColor=none;align=center;verticalAlign=middle;whiteSpace=wrap;rounded=0;" parent="1" vertex="1">
          <mxGeometry x="145" y="190" width="20" height="30" as="geometry" />
        </mxCell>
        <mxCell id="6Qk-c6x9b5MRVzB00tFX-28" value="3" style="text;html=1;strokeColor=none;fillColor=none;align=center;verticalAlign=middle;whiteSpace=wrap;rounded=0;fontColor=#3333FF;fontStyle=1" parent="1" vertex="1">
          <mxGeometry x="356" y="220" width="20" height="30" as="geometry" />
        </mxCell>
        <mxCell id="6Qk-c6x9b5MRVzB00tFX-29" value="0" style="text;html=1;strokeColor=none;fillColor=none;align=center;verticalAlign=middle;whiteSpace=wrap;rounded=0;fontColor=#00CC00;fontStyle=3" parent="1" vertex="1">
          <mxGeometry x="338" y="189" width="20" height="30" as="geometry" />
        </mxCell>
        <mxCell id="6Qk-c6x9b5MRVzB00tFX-32" value="1" style="text;html=1;strokeColor=none;fillColor=none;align=center;verticalAlign=middle;whiteSpace=wrap;rounded=0;fontColor=#00CC00;fontStyle=3" parent="1" vertex="1">
          <mxGeometry x="200" y="297" width="20" height="30" as="geometry" />
        </mxCell>
        <mxCell id="6Qk-c6x9b5MRVzB00tFX-33" value="1" style="text;html=1;strokeColor=none;fillColor=none;align=center;verticalAlign=middle;whiteSpace=wrap;rounded=0;fontColor=#00CC00;fontStyle=3" parent="1" vertex="1">
          <mxGeometry x="200" y="226" width="20" height="30" as="geometry" />
        </mxCell>
        <mxCell id="6Qk-c6x9b5MRVzB00tFX-34" value="1" style="text;html=1;strokeColor=none;fillColor=none;align=center;verticalAlign=middle;whiteSpace=wrap;rounded=0;fontColor=#00CC00;fontStyle=3" parent="1" vertex="1">
          <mxGeometry x="200" y="157" width="20" height="30" as="geometry" />
        </mxCell>
        <mxCell id="6Qk-c6x9b5MRVzB00tFX-35" value="1" style="text;html=1;strokeColor=none;fillColor=none;align=center;verticalAlign=middle;whiteSpace=wrap;rounded=0;fontColor=#00CC00;fontStyle=3" parent="1" vertex="1">
          <mxGeometry x="200" y="86" width="20" height="30" as="geometry" />
        </mxCell>
        <mxCell id="6Qk-c6x9b5MRVzB00tFX-36" value="2" style="text;html=1;strokeColor=none;fillColor=none;align=center;verticalAlign=middle;whiteSpace=wrap;rounded=0;fontColor=#00CC00;fontStyle=3" parent="1" vertex="1">
          <mxGeometry x="64" y="189" width="20" height="30" as="geometry" />
        </mxCell>
        <mxCell id="6Qk-c6x9b5MRVzB00tFX-38" value="EFT" style="ellipse;whiteSpace=wrap;html=1;aspect=fixed;" parent="1" vertex="1">
          <mxGeometry x="185" y="40" width="50" height="50" as="geometry" />
        </mxCell>
        <mxCell id="6Qk-c6x9b5MRVzB00tFX-41" value="1" style="text;html=1;strokeColor=none;fillColor=none;align=center;verticalAlign=middle;whiteSpace=wrap;rounded=0;fontColor=#00CC00;fontStyle=3" parent="1" vertex="1">
          <mxGeometry x="200" y="15" width="20" height="30" as="geometry" />
        </mxCell>
        <mxCell id="6Qk-c6x9b5MRVzB00tFX-42" value="33" style="text;html=1;strokeColor=none;fillColor=none;align=center;verticalAlign=middle;whiteSpace=wrap;rounded=0;" parent="1" vertex="1">
          <mxGeometry x="145" y="70" width="20" height="30" as="geometry" />
        </mxCell>
        <mxCell id="6Qk-c6x9b5MRVzB00tFX-43" value="51" style="text;html=1;strokeColor=none;fillColor=none;align=center;verticalAlign=middle;whiteSpace=wrap;rounded=0;" parent="1" vertex="1">
          <mxGeometry x="255" y="70" width="20" height="30" as="geometry" />
        </mxCell>
        <mxCell id="6Qk-c6x9b5MRVzB00tFX-44" value="2:&amp;nbsp;Mtx capacity" style="text;html=1;strokeColor=none;fillColor=none;align=left;verticalAlign=middle;whiteSpace=wrap;rounded=0;fontColor=#00CC00;fontStyle=3" parent="1" vertex="1">
          <mxGeometry x="305" y="30" width="115" height="25" as="geometry" />
        </mxCell>
        <mxCell id="6Qk-c6x9b5MRVzB00tFX-45" value="&lt;span style=&quot;color: rgb(51, 51, 255); font-family: Helvetica; font-size: 12px; font-style: normal; font-variant-ligatures: normal; font-variant-caps: normal; font-weight: 700; letter-spacing: normal; orphans: 2; text-align: center; text-indent: 0px; text-transform: none; widows: 2; word-spacing: 0px; -webkit-text-stroke-width: 0px; background-color: rgb(251, 251, 251); text-decoration-thickness: initial; text-decoration-style: initial; text-decoration-color: initial; float: none; display: inline !important;&quot;&gt;4:&amp;nbsp;Planes needing mtx&amp;nbsp;&lt;/span&gt;" style="text;whiteSpace=wrap;html=1;" parent="1" vertex="1">
          <mxGeometry x="305" y="60" width="165" height="25" as="geometry" />
        </mxCell>
        <mxCell id="6Qk-c6x9b5MRVzB00tFX-46" value="33: Distances&amp;nbsp;" style="text;html=1;strokeColor=none;fillColor=none;align=left;verticalAlign=middle;whiteSpace=wrap;rounded=0;" parent="1" vertex="1">
          <mxGeometry x="305" y="90" width="125" height="30" as="geometry" />
        </mxCell>
        <mxCell id="6Qk-c6x9b5MRVzB00tFX-49" value="27" style="text;html=1;strokeColor=none;fillColor=none;align=center;verticalAlign=middle;whiteSpace=wrap;rounded=0;" parent="1" vertex="1">
          <mxGeometry x="200" y="375" width="20" height="30" as="geometry" />
        </mxCell>
      </root>
    </mxGraphModel>
  </diagram>
</mxfile>
